<svg xmlns="http://www.w3.org/2000/svg" width="16" height="16" viewBox="0 0 16 16" fill="currentColor"><path d="M15.9 5l-.1-.1H14.6V3.1c0-.1 0-.2-.1-.2-.1-.1-.1-.1-.2-.1H7.5V1.4c0-.1 0-.2-.1-.2 0-.1-.1-.1-.2-.1H1.7c-.1 0-.2 0-.2.1-.1.1-.1.1-.1.2v3.5H.3.2s-.1 0-.1.1-.1.1-.1.1v.1l1 9.3c0 .1 0 .1.1.2s.1.1.2.1h13.3c.1 0 .2 0 .2-.1.1-.1.1-.1.1-.2l1-9.3v-.1c.1 0 0 0 0-.1zM2 1.7h4.9v1.4c0 .1 0 .2.1.2.1.1.1.1.2.1H14v1.5H2V1.7zm12.4 12.6H1.6l-1-8.7h14.7l-.9 8.7z"/><path d="M5.6 9.5c.3 0 .6-.3.6-.6s-.3-.6-.6-.6-.6.3-.6.6c0 .4.3.6.6.6zM10.4 9.5c.3 0 .6-.3.6-.6s-.3-.6-.6-.6-.6.3-.6.6c-.1.4.2.6.6.6zM9.3 10.6S9 9.7 8 9.7s-1.3.8-1.3.9v.1c0 .1 0 .1.1.2 0 .1 0 .1.1.1h.2c.1 0 .1-.1.1-.2s.2-.4.8-.4.7.4.8.4c0 .1.1.1.1.2h.2c.1 0 .1 0 .2-.1 0 0 .1-.1 0-.3.1.1.1.1 0 0z"/></svg>
