<svg xmlns="http://www.w3.org/2000/svg" width="16" height="16" viewBox="0 0 16 16" fill="currentColor"><path d="M2.7 15.5V.5h6.8v3.3c0 .1 0 .1.1.2 0 0 .1.1.2.1l3.6-.5v11.9H2.7zM13 3.1l-3 .4V.7l3 2.4zM9.9.1c0-.1 0-.1 0 0-.1-.1-.1-.1 0 0-.1-.1-.1-.1-.2-.1H2.4c-.1 0-.3.1-.3.3v15.5c0 .1.1.3.3.3h11.2c.1 0 .3-.1.3-.3V3.3c0-.1 0-.2-.1-.2L9.9.1z"/><path d="M5.9 7.8c.3 0 .6-.3.6-.6s-.3-.6-.6-.6-.6.3-.6.6.2.6.6.6zM10.2 7.8c.3 0 .6-.3.6-.6s-.3-.6-.6-.6c-.4 0-.6.3-.6.6s.2.6.6.6zM8 9.4c-1.8 0-3.3 1.5-3.3 3.3 0 .2.1.3.3.3.1 0 .3-.1.3-.3C5.2 11.2 6.5 10 8 10s2.8 1.3 2.8 2.8c0 .1.1.3.3.3.1 0 .3-.1.3-.3 0-1.9-1.5-3.4-3.4-3.4z"/></svg>
