<svg xmlns="http://www.w3.org/2000/svg" width="16" height="16" viewBox="0 0 16 16" fill="currentColor"><path d="M1.6 2.4c-.1 0-.2.1-.2.2v11.7c0 .1.1.2.2.2h11.7c.1 0 .2-.1.2-.2V2.6c0-.1-.1-.2-.2-.2H1.6zm0-.5h11.7c.4 0 .6.3.6.6v11.7c0 .4-.3.6-.6.6H1.6c-.4 0-.6-.3-.6-.6V2.6c0-.4.3-.7.6-.7z"/><path d="M2.1 14.7h.4v.6c0 .1.1.2.2.2h11.7c.1 0 .2-.1.2-.2V3.7c0-.1-.1-.2-.2-.2h-.6V3h.6c.3 0 .6.3.6.7v11.7c0 .4-.3.6-.6.6H2.7c-.4 0-.6-.3-.6-.6v-.7zm.4 0v.6c0 .1.1.2.2.2h11.7c.1 0 .2-.1.2-.2V3.7c0-.1-.1-.2-.2-.2h-.6V3h.6c.3 0 .6.3.6.7v11.7c0 .4-.3.6-.6.6H2.7c-.4 0-.6-.3-.6-.6v-.6h.4zM2.7 6.1c-.1.1-.2.1-.3 0v-.3l1.9-1.9c.1-.1.2-.1.3 0 .1.1.1.2 0 .3L2.7 6.1zM3 7.4c-.1.1-.2.1-.3 0-.1-.1-.1-.2 0-.3l1.9-1.9c.1-.1.2-.1.3 0 .1 0 .1.2 0 .3L3 7.4z"/><path d="M10.9 3.2c0-.1.1-.2.2-.2s.2.1.2.2v2.3c0 .5-.4 1-1 1-.5 0-1-.4-1-1V1.2C9.4.5 9.9 0 10.6 0c.7 0 1.2.5 1.2 1.2V2c0 .1-.1.2-.2.2s-.2-.1-.2-.2v-.8c0-.4-.3-.8-.8-.8-.4 0-.8.3-.8.8v4.3c0 .3.2.5.5.5s.5-.2.5-.5V3.2z"/></svg>
