<svg xmlns="http://www.w3.org/2000/svg" x="0" y="0" width="16" height="16" viewBox="0 0 16 16" fill="#000" opacity="0.2"><path d="M8 16c-1.6 0-3.1-.5-4.4-1.3-1.3-.9-2.3-2.1-2.9-3.6C0 9.6-.2 8 .2 6.4c.3-1.6 1.1-3 2.2-4.1C3.5 1.2 4.9.4 6.5.1 8-.2 9.6 0 11.1.6c1.5.6 2.7 1.6 3.6 2.9C15.5 4.9 16 6.4 16 8c0 2.1-.8 4.2-2.3 5.7C12.2 15.2 10.1 16 8 16zM8 .6C6.5.6 5.1 1 3.9 1.8c-1.2.8-2.2 2-2.7 3.3C.6 6.5.5 8 .8 9.4s1 2.7 2 3.8c1 1 2.3 1.7 3.8 2 1.4.3 2.9.1 4.3-.4 1.3-.6 2.5-1.5 3.3-2.7.8-1.2 1.2-2.6 1.2-4.1 0-2-.8-3.8-2.2-5.2C11.8 1.4 10 .6 8 .6z"/><path d="M11.5 9.1c-.1-.1-.1-.1-.2-.1s-.2 0-.2.1c-.9.6-2 1-3.1 1s-2.2-.4-3.1-1c0 0-.1-.1-.2-.1s-.2 0-.2.1l-.1.1v.2l.1.1c1 .7 2.2 1.1 3.4 1.1 1.2 0 2.4-.4 3.4-1.1l.1-.1v-.1-.1c.1 0 .1 0 .1-.1zM6.7 6.4c-.1 0-.1 0-.2-.1-.1 0-.1-.1-.1-.2-.1-.1-.2-.3-.4-.4-.1-.1-.3-.2-.5-.2s-.4.1-.6.2c-.1.1-.3.3-.3.5 0 .1-.1.1-.1.2-.1 0-.1.1-.2.1h-.1l-.1-.1C4 6.3 4 6.2 4 6.2v-.1c.1-.3.3-.6.6-.8.2-.3.5-.4.9-.4.3 0 .7.1.9.3.3.2.5.5.6.8v.1s0 .1-.1.1l-.1.1c0 .1-.1.1-.1.1zM11.7 6.4c-.1 0-.1 0-.2-.1-.1 0-.1-.1-.1-.2-.1-.2-.2-.4-.3-.5-.2-.1-.4-.2-.6-.2-.2 0-.4.1-.6.2s-.2.4-.3.6c0 .1-.1.1-.1.2-.1 0-.1.1-.2.1h-.1l-.1-.1C9 6.3 9 6.2 9 6.2v-.1c.1-.3.3-.6.6-.8.3-.2.6-.3.9-.3.3 0 .7.1.9.3.3.1.5.4.6.7v.1s0 .1-.1.1l-.1.1c0 .1 0 .1-.1.1z"/></svg>
